PathFileType	4	(X/Y/Z)	 s10c0303.trc
DataRate	CameraRate	NumFrames	NumMarkers	Units	OrigDataRate	OrigDataStartFrame	OrigNumFrames
200	200	4	50	mm	200	751	2000
Frame#	Time	racr			lacr			c7			jug			rlel			rdr			llel			ldr			s2			lic			ric			lasi			rasi			rpsi			lpsi			rgt			lgt			rth1			rth2			rth3			rth4			rlfc			rmfc			rsh1			rsh2			rsh3			rsh4			rlmal			rmmal			rcal			rtoe			rmt5			lth1			lth2			lth4			lth3			llfc			lmfc			llmal			lmmal			lcal			lmt5			lsh1			lsh2			lsh3			lsh4			ltoe			SBIKE			LBIKE			RBIKE			
		X1	Y1	Z1	X2	Y2	Z2	X3	Y3	Z3	X4	Y4	Z4	X5	Y5	Z5	X6	Y6	Z6	X7	Y7	Z7	X8	Y8	Z8	X9	Y9	Z9	X10	Y10	Z10	X11	Y11	Z11	X12	Y12	Z12	X13	Y13	Z13	X14	Y14	Z14	X15	Y15	Z15	X16	Y16	Z16	X17	Y17	Z17	X18	Y18	Z18	X19	Y19	Z19	X20	Y20	Z20	X21	Y21	Z21	X22	Y22	Z22	X23	Y23	Z23	X24	Y24	Z24	X25	Y25	Z25	X26	Y26	Z26	X27	Y27	Z27	X28	Y28	Z28	X29	Y29	Z29	X30	Y30	Z30	X31	Y31	Z31	X32	Y32	Z32	X33	Y33	Z33	X34	Y34	Z34	X35	Y35	Z35	X36	Y36	Z36	X37	Y37	Z37	X38	Y38	Z38	X39	Y39	Z39	X40	Y40	Z40	X41	Y41	Z41	X42	Y42	Z42	X43	Y43	Z43	X44	Y44	Z44	X45	Y45	Z45	X46	Y46	Z46	X47	Y47	Z47	X48	Y48	Z48	X49	Y49	Z49	X50	Y50	Z50	
751	3.7550	606.605237	1299.165057	47.744506	662.761091	1280.450178	-294.816788	620.073485	1334.457156	-126.326737	609.950985	1189.783969	-123.563487	498.595779	1035.976146	79.888119	641.999341	879.281314	-10.845735	558.999966	1061.104620	-453.305312	669.829378	884.387149	-377.088304	97.253126	1154.097634	-188.952547	268.969082	1152.956369	-340.896774	265.030610	1131.441233	-54.388910	284.040530	1059.862146	-314.405417	265.844400	1055.447426	-57.118070	141.985993	1201.363707	-130.078270	156.668282	1212.702197	-240.062995	152.122964	1045.832704	-4.147219	161.156523	1040.825343	-381.063587	238.419968	916.992709	10.804485	313.482823	871.680739	-5.701784	353.404999	796.589086	-15.866439	338.485602	898.882221	-13.475646	432.662682	708.460444	-42.948966	409.642638	701.490485	-155.951082	364.821468	617.670636	-10.435911	342.538317	532.920044	-26.091680	283.499453	469.827616	-26.742997	366.855836	523.745120	-55.247418	229.117612	380.453743	-41.846677	253.951479	397.231898	-123.994085	172.165449	359.478329	-90.378846	413.764499	332.285033	-79.607239	329.740546	306.269601	-19.320765	222.389783	919.484290	-395.619982	285.200111	860.405538	-383.735243	314.027111	879.768226	-372.598293	310.815729	775.602238	-380.619210	355.118856	669.134014	-367.643522	351.624756	657.204930	-246.292362	24.054900	474.210533	-383.889649	35.004232	459.151045	-305.174140	-33.478950	490.955196	-338.314831	34.401248	325.536690	-395.318139	242.600096	617.640102	-404.660549	188.053697	549.741386	-391.468297	104.919018	518.478420	-392.762977	206.119413	528.670402	-365.679458	101.449240	285.156180	-340.480263	-203.772850	831.253109	-223.910365	-78.170698	82.015592	-423.661760	-102.638780	80.617649	-24.410770	
752	3.7600	605.129691	1298.214380	47.007217	664.783753	1281.033554	-294.790116	619.839463	1335.362136	-128.107681	610.171588	1190.042036	-124.856053	496.849464	1034.908215	78.159159	642.044204	879.064709	-11.153559	561.666423	1061.624931	-454.433129	670.072694	884.378781	-377.000856	96.856414	1151.542620	-186.187147	267.319899	1150.171844	-340.585579	267.382342	1129.821806	-54.408073	282.509347	1057.824974	-313.717159	267.518891	1053.347007	-56.975151	142.015998	1198.981472	-127.964394	155.712459	1209.840743	-238.549632	154.426494	1041.577484	-2.294561	159.438305	1038.424673	-378.861793	238.773258	911.726720	11.587597	313.043014	865.156593	-5.698488	351.481224	789.361922	-16.792028	338.430512	891.839927	-13.818103	427.677227	702.059678	-44.111907	404.492385	694.736782	-157.076269	360.069583	609.861420	-11.506353	339.273735	524.568238	-26.455062	281.154497	460.586041	-27.052965	364.311227	515.651260	-54.852166	227.896908	370.307823	-41.635129	253.899638	387.879563	-123.496668	171.014054	349.594552	-90.367634	413.005813	323.025564	-78.646429	328.548314	296.129569	-19.428320	222.530497	919.119414	-394.630198	286.380355	860.995605	-383.362033	314.936532	880.763028	-372.135046	313.287253	776.598548	-380.759380	359.896671	671.405392	-368.195955	356.087499	659.070039	-246.453934	26.657018	483.795370	-383.501831	37.051371	468.746160	-304.076181	-30.987404	501.121624	-338.085220	35.685973	335.304547	-395.298200	247.752359	622.598592	-404.842073	192.127085	555.912493	-392.064261	108.330583	526.059942	-392.506949	209.827536	534.302637	-365.953669	102.464921	294.585584	-340.226887	-203.763376	831.198838	-223.932955	-78.182522	82.002963	-423.649125	-102.634405	80.613379	-24.400680	
753	3.7650	603.953824	1297.528087	45.969912	666.567266	1282.052781	-294.768865	619.471990	1335.895820	-129.567894	610.483057	1190.275284	-126.296456	495.471714	1033.778325	76.454814	642.116837	878.922213	-11.404268	564.428161	1062.193694	-455.230728	670.285588	884.330582	-376.912270	96.357435	1148.620720	-183.293445	265.672317	1147.324166	-340.193123	269.676653	1127.986392	-54.437792	280.956329	1055.632325	-312.744241	268.552964	1049.762368	-58.542628	143.345522	1195.541386	-126.018606	154.700460	1206.861018	-237.097858	157.095276	1037.221329	-0.283143	157.861328	1035.833860	-376.778489	239.175370	906.203416	12.257569	312.476455	858.434001	-5.685411	349.353154	781.961130	-17.892432	338.253093	884.671292	-13.973770	422.430930	695.662124	-45.300060	396.324094	687.417052	-159.078718	354.989443	602.060556	-12.331044	335.635089	516.253756	-26.634231	278.438640	451.453561	-27.321207	360.725274	507.406752	-55.283604	226.164475	360.306488	-41.675087	250.002908	376.777815	-124.739963	169.509457	340.061844	-90.283779	411.146653	311.457198	-80.383978	326.945847	286.092302	-19.576745	222.778770	918.559870	-393.809815	287.632184	861.443059	-382.977192	315.927079	881.639459	-371.679656	316.188278	777.601882	-381.543357	364.756232	673.786895	-368.850303	360.084331	660.434757	-246.823358	29.757532	493.214181	-383.210832	40.726839	478.290225	-303.407601	-28.007406	511.198161	-337.906708	37.435081	344.694562	-395.236700	253.362983	627.936691	-405.151444	196.759839	562.414460	-392.396037	112.074102	533.510557	-392.213599	213.773621	540.284266	-365.774540	103.868639	303.429144	-339.834630	-203.788365	831.181990	-223.841667	-78.188598	82.008876	-423.666237	-102.626312	80.609769	-24.404661	
754	3.7700	602.689541	1296.664427	44.249494	668.096017	1283.729174	-294.795280	618.811056	1336.442377	-131.224970	610.566336	1190.838467	-129.795894	494.653150	1032.693943	75.048896	642.198640	878.805215	-11.589320	567.288319	1062.751954	-455.663628	670.493184	884.249379	-376.844303	95.959914	1145.413073	-180.489792	261.074202	1143.028783	-336.597547	271.873944	1126.048395	-54.461384	279.487428	1053.483968	-311.905409	270.157477	1047.110200	-58.085496	143.911679	1192.154967	-124.002239	153.993513	1204.090114	-235.908632	159.338543	1032.795702	1.691973	156.152020	1032.915284	-374.729649	239.557173	900.688942	13.129357	311.584203	851.262518	-6.609491	347.077000	774.375443	-19.112416	337.890990	877.227048	-14.182070	417.018135	689.187775	-46.545120	390.733962	680.982566	-160.339106	349.607221	594.274075	-13.025966	331.395639	508.163692	-26.886897	275.386338	442.431678	-27.649998	357.080343	499.555664	-55.205624	223.639627	350.728521	-41.915015	248.235797	367.018034	-124.776142	167.548372	331.070522	-90.184803	409.122546	301.216593	-80.481677	324.837301	276.216105	-19.768417	223.084077	917.691980	-393.003447	289.004059	861.820532	-382.532996	317.003877	882.459455	-371.152792	318.988939	778.378483	-381.530002	369.920720	676.476281	-369.530202	364.540444	661.753534	-247.017143	33.355311	502.602431	-382.939577	43.534171	487.318556	-303.306991	-24.393398	521.278929	-338.377907	39.876852	354.249381	-395.168495	259.143141	633.440109	-405.510177	201.687800	568.710944	-392.670674	116.506955	541.088916	-392.113845	218.392759	546.111396	-365.549521	106.168482	312.665872	-339.825875	-203.846179	831.093569	-223.739622	-78.186497	81.989664	-423.641041	-102.651222	80.602143	-24.413721	
